<svg width="3631" height="2467" viewBox="0 0 3631 2467" fill="none" xmlns="http://www.w3.org/2000/svg">
<path d="M1.5 1782.5L323 1798V1777L322 1774.5V1758.5V1752L317.5 1750V1737.5L575.5 1744L589.5 1758V1768V1769.5H584.5V1792.5L581 1792V1802.5L717 1805.5H858L1003.5 1804L1142.5 1800.5H1144L1144.5 1777.5L1140.5 1774.5V1753L1134.5 1751V1741L1353.5 1729L1394.5 1743.5V1753.5L1390.5 1755.5V1778H1382V1789.5L1489.5 1787L1590 1783L1682 1779.5L1771.5 1776L1883 1770.5L1994.5 1764.5L2126 1759.5L2267.5 1754.5L2333 1752.5V1727L2330.5 1725V1700H2324V1687L2582.5 1674.5L2602.5 1690.5V1702H2598V1728H2595.5V1740L2773.5 1735L2908.5 1730L3043 1725.5L3154 1720.5L3243.5 1717L3316 1713.5L3314.5 1687.5L3314 1685.5L3313 1659.5L3309 1659L3308 1657.5V1644.5L3444 1637.5L3550.5 1632.5L3606 1630V1642L3601.5 1644.5L3602.5 1672L3601.5 1674.5L3606.5 1795L3626.5 2336L3628.5 2338L3630.5 2466.5" stroke="white"/>
<path d="M2330.5 1700L2579 1688L2598 1702" stroke="white"/>
<path d="M0.5 1790.5L321.5 1806.5" stroke="white"/>
<path d="M581 1813L769.5 1815L972 1813L1143.5 1809M581.5 2426.5L659 2410.5" stroke="white"/>
<path d="M323 1798L317 1986.5L306 2306.5L302.5 2444.5L556 2448.5L572 1782.5L581 1792" stroke="white"/>
<path d="M322 1752L572 1758.5L584.5 1769.5" stroke="white"/>
<path d="M589 1769.5L575 1756L317.5 1750" stroke="white"/>
<path d="M575.5 1744L575 1756.5" stroke="white"/>
<path d="M572 1758.5V1782.5" stroke="white"/>
<path d="M584.5 1792.5L572.5 1780.5L322 1774.5" stroke="white"/>
<path d="M323 1777L572 1783" stroke="white"/>
<path d="M572 1758.5L575 1756" stroke="white"/>
<path d="M558.5 2344L305.5 2340.5" stroke="white"/>
<path d="M350.5 2341L355.5 2211.5L357.5 2139L360.5 2047.5L363 1969.5L365 1891L367.5 1822H373C373 1822 403 1801.78 450 1803C497 1804.22 518.5 1825 518.5 1825H525L514.5 2343" stroke="white"/>
<path d="M361 2341L378 1830.5C378 1830.5 402.5 1811.93 446.5 1811.5C490.5 1811.07 516 1833.5 516 1833.5L504 2343" stroke="white"/>
<path d="M1168.5 2340.5L1177 1819.5L1185.5 1819C1185.5 1819 1205 1796 1246 1795C1287 1794 1305 1813 1305 1813H1313.5L1307 2340.5" stroke="white"/>
<path d="M1179 2341L1187 1828C1187 1828 1212 1805.5 1245 1804C1278 1802.5 1303 1823.5 1303 1823.5L1297.5 2341" stroke="white"/>
<path d="M2381.5 2338.5L2376 1771L2384 1769C2384 1769 2415.5 1744.01 2456.5 1743C2497.5 1742 2525.5 1762 2525.5 1762L2535.5 1761.5L2544 2338.5" stroke="white"/>
<path d="M2392.5 2338.5L2384.5 1779.5C2384.5 1779.5 2421.5 1755.5 2454.5 1754C2487.5 1752.5 2526 1775.5 2526 1775.5L2533 2338.5" stroke="white"/>
<path d="M3386 2338.5L3367 1732.5L3374.5 1731C3374.5 1731 3418 1703 3459 1702C3500 1701 3544 1724 3544 1724L3552.5 1724L3574 2337.5" stroke="white"/>
<path d="M3398 2338L3379 1741C3379 1741 3417.5 1715.93 3460 1714C3502.5 1712.07 3540 1737 3540 1737L3561.5 2337.5" stroke="white"/>
<path d="M581 1802.5L573 2076L662 2115.5L664 2116.5L659 2410.5L811 2410L818 2080.5H857L871.5 2083.5L866 2410L924.5 2409L930.5 2101.5H966L978 2104.5L973.5 2409L1023.5 2408L1027 2116.5H1060L1071 2119.5L1066.5 2409H1137.5L1144 1800.5" stroke="white"/>
<path d="M556 2448.5L1132.5 2444H1137.5V2430V2409" stroke="white"/>
<path d="M1137 2423.5L982 2424L756.5 2426.5H581.5" stroke="white"/>
<path d="M811 2410.5V2422.5H852L866 2420.5V2409" stroke="white"/>
<path d="M924.5 2409V2416H963L973.5 2414.5V2409" stroke="white"/>
<path d="M1023.5 2408.5V2411H1056.5L1066.5 2409" stroke="white"/>
<path d="M857 2080.5L852 2423" stroke="white"/>
<path d="M967 2101.5L963 2416" stroke="white"/>
<path d="M1060 2116.5L1056.5 2411" stroke="white"/>
<path d="M664 2116.5L817 2117.5" stroke="white"/>
<path d="M871.5 2117.5H930" stroke="white"/>
<path d="M978 2118L1027 2117" stroke="white"/>
<path d="M1071 2119.5L1140.5 2118.5" stroke="white"/>
<path d="M570 2437L569.5 2448.5" stroke="white"/>
<path d="M0.5 1825L321.5 1839.5" stroke="white"/>
<path d="M1 1831.5L321.5 1846.5" stroke="white"/>
<path d="M1 2041.5L137 2045.5L315 2047.5" stroke="white"/>
<path d="M1 2049L131.5 2053.5L224 2055H314" stroke="white"/>
<path d="M1 2069L102.5 2071.5L236 2074H313.5" stroke="white"/>
<path d="M1 2106L114.5 2109L263 2111.5H312.5" stroke="white"/>
<path d="M580 1844L771 1846H909.5L1039 1843.5L1143.5 1840" stroke="white"/>
<path d="M580 1851.5L684.5 1853H813.5H925L1022 1851L1143.5 1847.5" stroke="white"/>
<path d="M1141 2049.5L959.5 2053H854.5H744H574" stroke="white"/>
<path d="M574 2060H738H835.5L922.5 2059H1031.5L1141 2056" stroke="white"/>
<path d="M573 2076L818 2078H993.5L1140.5 2075.5" stroke="white"/>
<path d="M1138 2341H1346L1394 2339V2073L1373.5 2068V2049V2037H1376L1378 1840.5L1376 1838V1831V1806.5H1373.5V1801L1371 1798V1789.5H1382" stroke="white"/>
<path d="M1137.5 2444L1337.5 2445.5" stroke="white"/>
<path d="M1328 2456V2450.5L1379.5 2452L1422 2427.5L2301.5 2430H2341" stroke="white"/>
<path d="M1328 2450.5L1372.5 2427.5H1394V2339" stroke="white"/>
<path d="M1394 2427.5H1422" stroke="white"/>
<path d="M1328 2455.5L1379.5 2457M1379.5 2457L1415 2445V2436.5H1422V2428M1379.5 2457V2452" stroke="white"/>
<path d="M1415 2445L2273 2450L2294.5 2430" stroke="white"/>
<path d="M1422 2436.5L2282 2441.5" stroke="white"/>
<path d="M1137.5 2433.5L714 2435.5L570 2437.5" stroke="white"/>
<path d="M581.5 2437V2426" stroke="white"/>
<path d="M1346 2441.5L1349.5 1768L1351 1766V1743L1354 1740.5V1729" stroke="white"/>
<path d="M1390 1778L1351.5 1766L1140.5 1774.5" stroke="white"/>
<path d="M1144 1777.5L1349.5 1768L1382 1778" stroke="white"/>
<path d="M1351 1743L1390.5 1755.5" stroke="white"/>
<path d="M1354 1740.5L1394.5 1753.5" stroke="white"/>
<path d="M1134.5 1751L1354 1740.5" stroke="white"/>
<path d="M1140.5 1753L1351 1743" stroke="white"/>
<path d="M1378 1840.5L2333.5 1805.5" stroke="white"/>
<path d="M2333 1795L1376 1830" stroke="white"/>
<path d="M1376 1806.5L2333 1768.5" stroke="white"/>
<path d="M1373.5 1801L2333 1761.5" stroke="white"/>
<path d="M1373.5 2068L2336 2047" stroke="white"/>
<path d="M2336 2026.5L1373.5 2048.5" stroke="white"/>
<path d="M1376 2037L2335.5 2017.5" stroke="white"/>
<path d="M1394 2115H1463.5" stroke="white"/>
<path d="M1463 2411L1464.5 2100.5H1489.5" stroke="white"/>
<path d="M1488 2416.5L1490 2093L1601 2085L1660.5 2087.5" stroke="white"/>
<path d="M1394 2411L1488 2411.5" stroke="white"/>
<path d="M1488 2416L1601.5 2417.5L1660.5 2415" stroke="white"/>
<path d="M1601.5 2085V2417" stroke="white"/>
<path d="M1660.5 2065V2424.5H1701L1699 2063.5" stroke="white"/>
<path d="M1660.5 2065L1699 2064L1715 2068V2425" stroke="white"/>
<path d="M1701 2424.5H1715" stroke="white"/>
<path d="M1715 2089.5L1778 2087.5C1778 2087.5 1777.62 2085 1779.5 2082.5C1781.38 2080 1784 2080 1784 2080C1784 2080 1794.5 2078 1889.5 2074C1984.5 2070 2001.5 2071 2001.5 2071" stroke="white"/>
<path d="M2055 2072.5C2055 2072.5 2079.5 2073 2107.5 2074.5C2135.5 2076 2159 2080.5 2159 2080.5L2259.5 2079.5L2289 2073H2336" stroke="white"/>
<path d="M2159 2080V2092H2164V2181H2159L2159.5 2293.5H2164V2420" stroke="white"/>
<path d="M2164 2092L2260 2091V2079.5" stroke="white"/>
<path d="M2256.5 2091L2257 2180H2261L2263 2293.5H2259.5L2261 2420.5" stroke="white"/>
<path d="M2164 2181L2257.5 2180" stroke="white"/>
<path d="M2159 2293.5H2262" stroke="white"/>
<path d="M2289.5 2073L2294.5 2421" stroke="white"/>
<path d="M2340.5 2430L2333 1752.5" stroke="white"/>
<path d="M2268 2458H2329.5V2454.5L2340.5 2441.5V2430" stroke="white"/>
<path d="M2329.5 2454.5H2267.5" stroke="white"/>
<path d="M2268 2454.5L2273 2450" stroke="white"/>
<path d="M2268 2454.5V2458.5" stroke="white"/>
<path d="M2330 2458L2340.5 2452" stroke="white"/>
<path d="M2340.5 2441.5V2452.5" stroke="white"/>
<path d="M1715 2415.5H1780" stroke="white"/>
<path d="M1778 2087.5L1780.5 2421.5" stroke="white"/>
<path d="M1780.5 2421C1780.5 2421 1812.5 2422.5 1891.5 2422.5C1970.5 2422.5 2003 2422.5 2003 2422.5" stroke="white"/>
<path d="M1780 2369C1780 2369 1837.5 2370.5 1890.5 2370.5C1943.5 2370.5 2003 2370.5 2003 2370.5" stroke="white"/>
<path d="M2003.5 2427.5L2001.5 2057L2041.5 2056L2054.5 2059L2057 2427H2003.5" stroke="white"/>
<path d="M2041.5 2056V2427" stroke="white"/>
<path d="M2057 2423C2057 2423 2079.5 2423.5 2112.5 2422.5C2145.5 2421.5 2164 2420 2164 2420" stroke="white"/>
<path d="M2164 2420L2294.5 2421" stroke="white"/>
<path d="M2294.5 2421L2340.5 2421.5" stroke="white"/>
<path d="M2056.5 2370C2056.5 2370 2081.5 2370 2111 2370C2140.5 2370 2164 2368.5 2164 2368.5" stroke="white"/>
<path d="M1715 2100L1778 2098.5" stroke="white"/>
<path d="M1715 2185.5H1778.5" stroke="white"/>
<path d="M1779 2185.5L1786.5 2184.5L1787.5 2275.5L1779.5 2276" stroke="white"/>
<path d="M1802.5 2183L1843.5 2182L1844 2276L1802.5 2276.5V2183Z" stroke="white"/>
<path d="M1814 2183V2276" stroke="white"/>
<path d="M1943.5 2180.5L1878 2181.5V2275.5H1945L1943.5 2180.5Z" stroke="white"/>
<path d="M1884 2181.5V2275" stroke="white"/>
<path d="M2002 2179.5H1984V2275H2003" stroke="white"/>
<path d="M2137 2181.5L2087 2180L2088 2275L2138 2276L2137 2181.5Z" stroke="white"/>
<path d="M2126.5 2181.5L2127.5 2275.5" stroke="white"/>
<path d="M2206.5 2098L2170.5 2098.5V2173.78H2206.5V2098Z" stroke="white"/>
<path d="M2250 2098H2214V2174H2250V2098Z" stroke="white"/>
<path d="M2207.5 2304H2172V2336H2207.5V2304Z" stroke="white"/>
<path d="M2217 2336V2304H2252.5V2336H2217Z" stroke="white"/>
<path d="M2207.5 2342H2172V2374H2207.5V2342Z" stroke="white"/>
<path d="M2252.5 2342H2217V2374H2253L2252.5 2342Z" stroke="white"/>
<path d="M2207.5 2380.5H2172V2413H2207.5V2380.5Z" stroke="white"/>
<path d="M2253 2380.5H2217V2413H2253.5L2253 2380.5Z" stroke="white"/>
<path d="M1715 2106.5L1738.5 2106V2179.5H1715" stroke="white"/>
<path d="M1778 2105.5L1745 2106V2179.5H1778.5" stroke="white"/>
<path d="M1715 2297H1779.5" stroke="white"/>
<path d="M1715 2305.5H1740.5V2336.5H1715" stroke="white"/>
<path d="M1779.5 2305.5H1749V2337H1779.5" stroke="white"/>
<path d="M1715 2343H1740.5V2374H1715" stroke="white"/>
<path d="M1780 2343H1749V2374H1780" stroke="white"/>
<path d="M1715.5 2380.5H1740V2408H1715.5" stroke="white"/>
<path d="M1780 2380.5H1749V2408H1780" stroke="white"/>
<path d="M2339.5 2338.5H2588" stroke="white"/>
<path d="M2341 2451.5L2590.5 2454L2578 1715.5" stroke="white"/>
<path d="M2579 1688L2582 1685.5V1674.5" stroke="white"/>
<path d="M2579 1688.5V1713.5L2598 1727.5" stroke="white"/>
<path d="M2595.5 1728L2578 1715.5L2333 1727" stroke="white"/>
<path d="M2330.5 1725L2579 1713.5" stroke="white"/>
<path d="M2578 1715.5L2579 1713.5" stroke="white"/>
<path d="M2590.5 1740.5L2595.5 1740" stroke="white"/>
<path d="M2591 1740.5V1751L2592.5 1757V1784V1787.5L2594 1793L3317.5 1768.5" stroke="white"/>
<path d="M2593 1784C2593 1784 2929 1774 3070 1769.5C3211 1765 3317.5 1760 3317.5 1760" stroke="white"/>
<path d="M2591.5 1750L3108.5 1731.5L3316 1721.5" stroke="white"/>
<path d="M2592 1754L3072.5 1737.5L3316.5 1725.5" stroke="white"/>
<path d="M2592.5 1759L2953.5 1746L3316.5 1731.5" stroke="white"/>
<path d="M3324.5 1996.5L2595 2010L2596 2044L3326 2028.5" stroke="white"/>
<path d="M2595.5 2022L3325 2007.5" stroke="white"/>
<path d="M2594 1793L2596.5 2010" stroke="white"/>
<path d="M2626.5 2043.5L2633 2433.5" stroke="white"/>
<path d="M2596.5 2452.5V2444H2599.5M2599.5 2444V2434.5M2599.5 2444L3339 2448.5M2599.5 2434.5L2840 2435L3036 2437L3231.5 2438H3338.5M2599.5 2434.5L2605.5 2434.51" stroke="white"/>
<path d="M2596.5 2452.5L3339.5 2461.5" stroke="white"/>
<path d="M2590.5 2454L2596.5 2452.5" stroke="white"/>
<path d="M2599 2434.5L2605 2433" stroke="white"/>
<path d="M2632.5 2433L2646 2430.5" stroke="white"/>
<path d="M2646 2430.5L2638.69 2048.98L2627 2044" stroke="white"/>
<path d="M2598 2044L2605.5 2433.5" stroke="white"/>
<path d="M2646 2421.5H2694L2686 2071.5L2639 2072" stroke="white"/>
<path d="M2686 2071.5L2692.5 2073.5L2700.5 2420.5L2694 2421.5" stroke="white"/>
<path d="M2693 2090.5H2741.5L2747.5 2418H2701" stroke="white"/>
<path d="M2747.5 2418H2938" stroke="white"/>
<path d="M2753.5 2418L2747.5 2090.5" stroke="white"/>
<path d="M2741.5 2090.5H2834.5L2931 2089" stroke="white"/>
<path d="M3017.5 2085L3043.5 2084L3048.5 2086L3156.5 2084L3269.5 2081L3327.5 2079" stroke="white"/>
<path d="M3043.5 2084L3052 2418L3055 2416.5L3048.5 2085.5" stroke="white"/>
<path d="M3052 2418H3025" stroke="white"/>
<path d="M3025.5 2420.5L3017.5 2068L3013 2065.5L3021 2422.5L3025.5 2420.5Z" stroke="white"/>
<path d="M3021 2422.5H2989" stroke="white"/>
<path d="M2975.5 2039L2930.5 2039.5L2938.5 2433L2984.5 2433.5L2989 2432L2981 2042.5L2975.5 2039Z" stroke="white"/>
<path d="M2975.5 2039L2984.5 2433.5" stroke="white"/>
<path d="M2982 2066L3012.5 2065.5" stroke="white"/>
<path d="M2605.5 2433H2633" stroke="white"/>
<path d="M3055 2416.5L3338 2421.5" stroke="white"/>
<path d="M3316 1713.5L3339.5 2464L3630.5 2466" stroke="white"/>
<path d="M3335.5 2338.5L3628 2337.5" stroke="white"/>
<path d="M3314.5 1687.5L3601.5 1674.5" stroke="white"/>
<path d="M3314 1685.5L3602.5 1672" stroke="white"/>
<path d="M3313 1659.5L3601.5 1644.5" stroke="white"/>
<path d="M1493 1786.5V1662L1490.5 1660L1491 1623L1489.5 1621.5V1596L1488 1595V1567.5L1493.5 1566L1496.5 707.5L1492 705.5V701.5L1489.5 699V679L1486.5 677.5L1485.5 673.5L1482 671.5V663L1852.5 478.5L2477.5 542L2544.5 665.5L2545.5 677L2542.5 678V684H2539.5L2540.5 705L2538 706V713H2534L2535.5 896.5L2538 1063.5L2543 1407L2549 1676" stroke="white"/>
<path d="M1485.5 673.5L1854 491.5L2475 553.5L2542.5 678" stroke="white"/>
<path d="M1603 1783V1641L1602 1637.5V1601.5V1599.5V1572.5L1601 1570.5V1545.5L1603 1543.5L1604 1538L1607 827.5L1858.5 718L2274 754L2282 1502" stroke="white"/>
<path d="M2240.5 1527L2276 1501.5L2478 1511L2481.5 1518V1542L2480 1544L2480.5 1571L2479 1573L2480.5 1611L2479 1613L2480.5 1679" stroke="white"/>
<path d="M2241 1526.5L2242 1556L2244.5 1557.5V1584L2248.5 1585.5L2249 1621L2280.5 1603.5L2480.5 1610.5" stroke="white"/>
<path d="M2249 1621L2252 1623.5L2284 1606.5L2479 1613.5" stroke="white"/>
<path d="M2276 1501.5V1533.5L2277.5 1536V1563L2279.5 1565.5L2280.5 1603" stroke="white"/>
<path d="M2242 1556L2276 1533.5L2481.5 1541.5" stroke="white"/>
<path d="M2244.5 1557.5L2277.5 1536L2480 1544" stroke="white"/>
<path d="M2245 1584L2277.5 1563.5L2480.5 1570.5" stroke="white"/>
<path d="M2248.5 1585.5L2280 1566L2479 1573" stroke="white"/>
<path d="M2283.5 1606.5L2280.5 1603" stroke="white"/>
<path d="M2284 1607L2286 1754" stroke="white"/>
<path d="M2255 1622L2257 1754.5" stroke="white"/>
<path d="M2274 754L2248 793L2255 1516.5" stroke="white"/>
<path d="M2248 793.001L2158.5 803C2158.5 803 2107 757.5 1943 757.5C1864.14 757.5 1807.5 776 1782 798.5C1768.5 809.5 1769 846 1769 846L1693 853.501L1607 828.001" stroke="white"/>
<path d="M1769 846L1770 861L1772 864.5V893.5L1775 898.5V922.5C1775 922.5 1776 929.5 1777 933C1778 936.5 1782 941 1782 941L1783 1534.5" stroke="white"/>
<path d="M1772 893.5C1772 893.5 1772.06 882.5 1779.5 872C1786.94 861.5 1796.5 853.5 1824 842C1907.14 807.231 2069.5 826.999 2112.5 846.5C2155.5 866 2159.5 872.5 2159.5 872.5" stroke="white"/>
<path d="M1775 898.5C1775 898.5 1773.1 888.552 1780.54 878.052C1787.98 867.552 1795 858.5 1822.5 847C1905.64 812.231 2070.54 833.052 2113.54 852.552C2156.54 872.053 2159.04 877.552 2159.04 877.552" stroke="white"/>
<path d="M1775.5 925.5C1775.5 925.5 1773.5 918.001 1783 908.5C1847.36 844.129 2041.45 858.559 2113.5 887C2151.5 902 2158 906.5 2158 906.5" stroke="white"/>
<path d="M1770 861C1770 861 1767.65 849.5 1776.5 837C1785.35 824.5 1793.54 816.553 1821.04 805.053C1904.18 770.284 2060.08 789.105 2109.54 809.553C2159 830 2160 837 2160 837" stroke="white"/>
<path d="M1772.04 864.827C1772.04 864.827 1772 854.5 1776 845.5C1780 836.5 1792.5 822 1820 810.5C1903.14 775.731 2059.04 794.553 2108.5 815C2157.96 835.447 2160 843 2160 843" stroke="white"/>
<path d="M1771 1543.5C1771 1543.5 1775.5 1522.29 1914 1511C2052.5 1499.71 2162.5 1536.5 2162.5 1536.5" stroke="white"/>
<path d="M1771.5 1571.5C1771.5 1571.5 1762.5 1543.5 1933.5 1537.5C2104.5 1531.5 2164 1560.5 2164 1560.5" stroke="white"/>
<path d="M1772.5 1574.5C1772.5 1574.5 1762.5 1546.5 1933.5 1540.5C2104.5 1534.5 2164 1563.5 2164 1563.5" stroke="white"/>
<path d="M1774.5 1596C1774.5 1596 1767.08 1572.83 1938.08 1566.83C2109.08 1560.83 2163.5 1589.5 2163.5 1589.5" stroke="white"/>
<path d="M1776 1599C1776 1599 1767.08 1576.33 1938.08 1570.33C2109.08 1564.33 2160.5 1591.5 2160.5 1591.5" stroke="white"/>
<path d="M1768 1728.5C1768 1728.5 1763 1704 1934 1698C2105 1692 2168.5 1719 2168.5 1719" stroke="white"/>
<path d="M1768 1758C1768 1758 1767.53 1733.74 1929.02 1729.87C2090.5 1726 2171 1749.5 2171 1749.5" stroke="white"/>
<path d="M1769 1760.5C1769 1760.5 1765.03 1736.31 1926.52 1732.44C2088 1728.57 2167.5 1751.57 2167.5 1751.57" stroke="white"/>
<path d="M1786.5 1775C1786.5 1775 1830 1760.69 1937.5 1759.5C2045 1758.31 2060 1762 2060 1762" stroke="white"/>
<path d="M1797.5 1775C1797.5 1775 1830.5 1763.41 1938 1762.21C2045.5 1761.02 2031.5 1763 2031.5 1763" stroke="white"/>
<path d="M1775.5 1636C1775.5 1636 1768.63 1612.83 1939.63 1606.83C2110.63 1600.83 2159 1627.5 2159 1627.5" stroke="white"/>
<path d="M2158.5 803V819.5L2160.5 822.5L2158.5 906.5L2149.5 908L2152.5 1533" stroke="white"/>
<path d="M2162.5 1536.5L2163.5 1539.5L2164.5 1541V1560L2163.5 1562.5V1589L2160.5 1591.5V1627L2152 1629V1713.5" stroke="white"/>
<path d="M2168 1718.5L2171 1725V1749.5L2167 1751.5V1758" stroke="white"/>
<path d="M1771 1543.5V1571L1772.5 1574.5L1774 1595.5L1776 1599L1775.5 1635.5V1638.5L1776.5 1640.5L1778 1642L1779.5 1643L1782.5 1645L1783 1716.5" stroke="white"/>
<path d="M1768 1728V1758L1769 1760.5V1776" stroke="white"/>
<path d="M1762 478C1762 478 1790.5 400.5 1951 403C2111.5 405.5 2160 459 2160 459" stroke="white"/>
<path d="M1799 397.058C1799 397.058 1816 326 1968 329.5C2120 333 2136.5 403 2136.5 403V423.5" stroke="white"/>
<path d="M1762 491C1762 491 1791 419 1950 419C2109 419 2161.5 479.5 2161.5 479.5" stroke="white"/>
<path d="M1762.5 494C1762.5 494 1791 422 1950 422C2109 422 2161 482 2161 482" stroke="white"/>
<path d="M1762.5 508.5C1762.5 508.5 1787.5 435 1951 435C2114.5 435 2161.5 494 2161.5 494" stroke="white"/>
<path d="M1763.5 511.5C1763.5 511.5 1787.5 438 1951 438C2114.5 438 2161 497 2161 497" stroke="white"/>
<path d="M1767.5 521C1767.5 521 1786.5 445 1953 445C2119.5 445 2158 509 2158 509" stroke="white"/>
<path d="M1762 477.5V491L1762.5 494V508.5L1763.5 511L1764 515L1765 518.5L1767.5 520.5" stroke="white"/>
<path d="M2160 459L2161.5 461.5V479L2161 482L2161.5 494.5L2161 496V503.5L2158 509.5" stroke="white"/>
<path d="M1799 412C1799 412 1788.06 392.5 1797 375C1805.94 357.5 1833 341.5 1833 341.5C1833 341.5 1877 316 1975.5 316C2074 316 2129.5 371 2129.5 371C2129.5 371 2141.77 382.5 2144.5 397.5C2147.23 412.5 2136.5 423.5 2136.5 423.5V442" stroke="white"/>
<path d="M1799 411.5V437.5" stroke="white"/>
<path d="M1803 365.5L1957 233V215L1964 213V4L1965 2L1967 1.5L1969 2.5L1969.5 4L1975 213L1981.5 215V233L2130 365.5L2133 369L2136.5 374L2139 378.5L2141 383L2142.5 387.5L2144 393L2144.5 396" stroke="white"/>
<path d="M1799 412V396.5" stroke="white"/>
<path d="M1804 386L1811 388.5L1828 370.5M1828 361V422.5" stroke="white"/>
<path d="M1804 386.5V434.5" stroke="white"/>
<path d="M1811 388.5V430.5" stroke="white"/>
<path d="M1854.5 413.5V356M1854.5 356L1897.5 342.5L1896.5 405.5M1854.5 356L1846.5 350V416" stroke="white"/>
<path d="M1897.5 342.5V334.5" stroke="white"/>
<path d="M1929.5 403V337H1985V404" stroke="white"/>
<path d="M1923 403.5L1923.5 331" stroke="white"/>
<path d="M1991 404.5V331" stroke="white"/>
<path d="M1991 331L1985 337" stroke="white"/>
<path d="M1923.5 331L1929.5 337" stroke="white"/>
<path d="M2017 333.5V407.5" stroke="white"/>
<path d="M2071.5 347.5V417" stroke="white"/>
<path d="M2066.5 416V353L2017 340" stroke="white"/>
<path d="M2066.5 353L2071.5 347" stroke="white"/>
<path d="M2094.5 358L2095 424M2125 383V436" stroke="white"/>
<path d="M2119 433L2118.5 385L2094.5 365.5" stroke="white"/>
<path d="M2118.5 385L2125 383" stroke="white"/>
<path d="M1788.5 510.5V502L1803 487.5L1815 491.5V497" stroke="white"/>
<path d="M1803 487.5V503" stroke="white"/>
<path d="M1815 491.5L1842.5 477" stroke="white"/>
<path d="M1842.5 483.5L1843 468.5L1876.5 458V480.5" stroke="white"/>
<path d="M1884 481.5V463.5L1936.5 456.5" stroke="white"/>
<path d="M1884.5 463.5L1877 458" stroke="white"/>
<path d="M1936.5 487V452L1972 451.5V490.5" stroke="white"/>
<path d="M1976.5 491V456L2032 463V497" stroke="white"/>
<path d="M1972 451.5L1976.5 456" stroke="white"/>
<path d="M2032 463L2039 456.5L2071.5 466.5L2072 501" stroke="white"/>
<path d="M2039 456.5V497.5" stroke="white"/>
<path d="M2108.5 504.5V489L2118 485L2139 499.5V507.5" stroke="white"/>
<path d="M2118 485V505.5" stroke="white"/>
<path d="M2071.5 472L2108.5 489" stroke="white"/>
<path d="M1482 671.5L1852 486.5L2477.5 550L2545.5 677" stroke="white"/>
<path d="M1486.5 677.5L1854.5 497L2475 559L2542 684" stroke="white"/>
<path d="M2539.5 684L2471.5 562L1855 501.5L1489.5 679" stroke="white"/>
<path d="M1489.5 699L1855 521L2471.5 583L2540.5 705" stroke="white"/>
<path d="M2538 706L2471 586L1857 524L1492 701.5" stroke="white"/>
<path d="M1492 705.5L1856.5 530.5L2470 591L2537.5 713" stroke="white"/>
<path d="M2534 713L2466 594L1858.5 534L1496 707.5" stroke="white"/>
<path d="M1852.5 478.5V486.5L1854.5 491.5V497L1855.5 501.5V521L1857 524V530L1858.5 534" stroke="white"/>
<path d="M2477.5 542V550L2475 554V559L2471.5 562V583L2470.5 585.5V591L2466 593.5" stroke="white"/>
<path d="M1858.5 534V718" stroke="white"/>
<path d="M2465.5 594L2477.5 1511" stroke="white"/>
<path d="M1493.5 1566L1600.5 1545.5L1702 1560.5V1563L1711.5 1567V1587L1709.5 1588.5L1708.5 1613L1706.5 1615V1652.5L1602 1637L1490.5 1660" stroke="white"/>
<path d="M1488 1595L1600.5 1571L1711.5 1586.5" stroke="white"/>
<path d="M1489.5 1596.5L1602 1573L1709.5 1588.5" stroke="white"/>
<path d="M1489.5 1621.5L1602 1599L1708.5 1613" stroke="white"/>
<path d="M1490.5 1623.5L1601.5 1601L1706.5 1615" stroke="white"/>
<path d="M1493 1662.5L1603 1640.5L1691.5 1653L1706.5 1652.5" stroke="white"/>
<path d="M1693 853.5L1691.5 1558.5" stroke="white"/>
<path d="M1692 1653.5V1779" stroke="white"/>
<path d="M1782 1001L1787.5 995L1786.5 911.5L1803.5 898L1813 900.5L1840.5 888" stroke="white"/>
<path d="M1803.5 898V982.5C1803.5 982.5 1809 978.5 1820.5 974C1832 969.5 1840 968 1840 968V882.5L1873.5 873.5L1880 877L1935 870.5" stroke="white"/>
<path d="M1813 900.5V977" stroke="white"/>
<path d="M1817.5 974.5V905L1840 895.5" stroke="white"/>
<path d="M1873.5 873.5V960C1873.5 960 1893.5 955.5 1905.5 954.5C1917.5 953.5 1935 953.5 1935 953.5V866.5H1978V954.5C1978 954.5 1996.5 954.731 2013 956C2029.5 957.269 2042 958.5 2042 958.5V872.5L2080.5 880.5V967C2080.5 967 2097.5 971.5 2105.5 974.5C2113.5 977.5 2126 984 2126 984V896.5L2149.5 908" stroke="white"/>
<path d="M2037 877V958" stroke="white"/>
<path d="M1982.5 954.5V877.5L2032.5 881.5V957.5" stroke="white"/>
<path d="M1880 958.5V877" stroke="white"/>
<path d="M1885 957V882.5L1934.5 877" stroke="white"/>
<path d="M1978 871.5L2037 877L2041.5 872.5" stroke="white"/>
<path d="M2117 980V900L2080.5 885.5" stroke="white"/>
<path d="M2117 900L2126 896" stroke="white"/>
<path d="M2080.5 891L2112.5 903.5V977.5" stroke="white"/>
<path d="M1782 1101.5C1782 1101.5 1783 1098 1784.5 1095.5C1786 1093 1788 1092 1788 1092V1175.5C1788 1175.5 1786 1176 1784.5 1177.5C1783 1179 1782.5 1181 1782.5 1181" stroke="white"/>
<path d="M1820.5 1072C1810.5 1076 1803 1080 1803 1080L1803.5 1165C1803.5 1165 1814.5 1160 1820.5 1157.5C1826.5 1155 1841 1151 1841 1151V1065.5C1841 1065.5 1830.5 1068 1820.5 1072Z" stroke="white"/>
<path d="M1814 1160.5V1082.5L1841 1071.5" stroke="white"/>
<path d="M1841 1075.5L1818 1085V1158.5" stroke="white"/>
<path d="M1814 1082.5L1803 1080" stroke="white"/>
<path d="M1881.5 1144.77C1888.11 1143.99 1898.69 1142.82 1905.5 1142.5C1916 1142 1935.5 1140.5 1935.5 1140.5L1934.58 1058.5M1881.5 1144.77C1877.91 1145.19 1875.5 1145.5 1875.5 1145.5V1057.5C1875.5 1057.5 1885.5 1054.96 1903.5 1053.5C1921.5 1052.04 1934.58 1052.5 1934.58 1052.5V1058.5M1881.5 1144.77V1062L1934.58 1058.5" stroke="white"/>
<path d="M1935 1136L1886.5 1139.5V1066L1934.5 1063" stroke="white"/>
<path d="M1881.5 1062L1876 1058" stroke="white"/>
<path d="M2011.5 1053C1992.5 1051.5 1978.5 1052 1978.5 1052V1141C1978.5 1141 1986 1140.5 2011.5 1142.5C2037 1144.5 2042 1145.5 2042 1145.5V1056.5C2042 1056.5 2030.5 1054.5 2011.5 1053Z" stroke="white"/>
<path d="M2033.5 1064L1983 1060.5V1136.5L2033.5 1140V1064Z" stroke="white"/>
<path d="M2038.5 1060.5L2042 1056.5" stroke="white"/>
<path d="M2038.5 1060.5L1978.5 1056" stroke="white"/>
<path d="M2038.5 1060.5V1145" stroke="white"/>
<path d="M2106.5 1069C2096 1065.5 2081 1062.5 2081 1062.5V1150.5C2081 1150.5 2099 1154.5 2106.5 1156.5C2114 1158.5 2126 1163.5 2126 1163.5V1076C2126 1076 2117 1072.5 2106.5 1069Z" stroke="white"/>
<path d="M2081 1074.5L2112 1084L2112.5 1155.5L2081 1147" stroke="white"/>
<path d="M2081 1070L2116 1081L2117 1160" stroke="white"/>
<path d="M2116 1081L2126 1076.5" stroke="white"/>
<path d="M1782.5 1361C1782.5 1361 1783.5 1359.5 1784.5 1358.5C1785.5 1357.5 1787.5 1356.5 1787.5 1356.5V1270.5C1787.5 1270.5 1785.5 1272 1784.5 1273.5C1783.5 1275 1782.5 1278 1782.5 1278" stroke="white"/>
<path d="M1815 1342.5C1816.98 1341.64 1818.04 1341.15 1820 1340.5C1827.5 1338 1841.5 1334.5 1841.5 1334.5L1840.58 1254.5M1815 1342.5C1809.41 1344.93 1803.5 1348 1803.5 1348V1260C1803.5 1260 1814.5 1255 1824 1252C1833.5 1249 1840.5 1248 1840.5 1248L1840.58 1254.5M1815 1342.5V1263.5L1840.58 1254.5" stroke="white"/>
<path d="M1819.5 1340.5V1266L1840.5 1259" stroke="white"/>
<path d="M1815 1263.5L1804 1260.5" stroke="white"/>
<path d="M1875 1241.5V1330C1875 1330 1885.5 1328.5 1904 1327.5C1922.5 1326.5 1936 1326.5 1936 1326.5L1935 1237C1935 1237 1919.5 1236 1903 1237.5C1886.5 1239 1875 1241.5 1875 1241.5Z" stroke="white"/>
<path d="M1935 1247.5L1887.5 1251V1324L1936 1321.5" stroke="white"/>
<path d="M1882 1329V1246.5L1935 1242.5" stroke="white"/>
<path d="M1882 1247L1875 1242" stroke="white"/>
<path d="M2012 1238C1995.5 1237 1979 1237 1979 1237V1327C1979 1327 2001 1328 2014.5 1328.5C2028 1329 2042.5 1329.5 2042.5 1329.5V1241C2042.5 1241 2028.5 1239 2012 1238Z" stroke="white"/>
<path d="M2042 1241.5L2039.5 1244.5V1329M1983.5 1245.5L2035 1248.5V1325.5L1983.5 1323.5V1245.5Z" stroke="white"/>
<path d="M2039.5 1244.5L1979 1241" stroke="white"/>
<path d="M2101.5 1250C2089 1247 2082 1246 2082 1246V1335.5C2082 1335.5 2089.5 1336.5 2104.5 1340C2119.5 1343.5 2127.5 1346 2127.5 1346L2126.5 1258C2126.5 1258 2114 1253 2101.5 1250Z" stroke="white"/>
<path d="M2082 1252L2117.5 1261L2119 1343.5" stroke="white"/>
<path d="M2082 1256L2113 1264L2114 1339.5L2082 1332" stroke="white"/>
<path d="M2117.5 1261L2126.5 1258" stroke="white"/>
<path d="M1788 1532.5V1450.5C1788 1450.5 1785.5 1453 1784.5 1455C1783.5 1457 1783 1459 1783 1459" stroke="white"/>
<path d="M1842 1519L1841.08 1437.83M1804 1527V1443.33C1804 1443.33 1815 1438.33 1824.5 1435.33C1834 1432.33 1841 1431.33 1841 1431.33L1841.08 1437.83M1815.5 1524V1446.83L1841.08 1437.83" stroke="white"/>
<path d="M1820 1523.83V1449.33L1841 1442.33" stroke="white"/>
<path d="M1815.5 1446.83L1804.5 1443.83" stroke="white"/>
<path d="M1875.5 1514.5V1426.5C1875.5 1426.5 1887 1424 1903.5 1423C1920 1422 1935.5 1421.5 1935.5 1421.5L1936.5 1509.83" stroke="white"/>
<path d="M1935.5 1431.5L1888 1434.5V1510.73L1936.5 1508" stroke="white"/>
<path d="M1882.5 1513.5V1430.5L1935.5 1427" stroke="white"/>
<path d="M1882.5 1430.33L1875.5 1426.5" stroke="white"/>
<path d="M2043 1512.83V1426C2043 1426 2031.5 1423.5 2010 1422.5C1988.5 1421.5 1979.5 1422.5 1979.5 1422.5V1509" stroke="white"/>
<path d="M2043 1426L2040 1428.83V1512.33M1984 1431L2035.5 1433V1508.83L1984 1506.83V1431Z" stroke="white"/>
<path d="M2040 1429L1980 1427" stroke="white"/>
<path d="M2128 1527.5L2127 1441.33C2127 1441.33 2114 1436.5 2101.5 1433.5C2089 1430.5 2082.5 1429.33 2082.5 1429.33V1518.5" stroke="white"/>
<path d="M2082.5 1436.5L2119 1445L2120.5 1525" stroke="white"/>
<path d="M2082.5 1441L2115 1448.5L2116 1524" stroke="white"/>
<path d="M2119 1445.5L2127 1441.33" stroke="white"/>
<path d="M1790.5 1714.5L1790 1631L1806.5 1624L1814.5 1625V1708.5" stroke="white"/>
<path d="M1806.5 1710V1624" stroke="white"/>
<path d="M1814.5 1625L1845 1620" stroke="white"/>
<path d="M1846 1704L1845 1617.5L1880.5 1613L1881 1700.5" stroke="white"/>
<path d="M1818.5 1707.5V1628.5L1845 1624.5" stroke="white"/>
<path d="M1886.5 1700L1886 1617L1941.5 1615" stroke="white"/>
<path d="M1942 1697.5V1610L1983 1609L1984 1697.5" stroke="white"/>
<path d="M1886 1617L1880.5 1613" stroke="white"/>
<path d="M1890 1620.5L1941.5 1619" stroke="white"/>
<path d="M1890.5 1620.5V1696.5L1941.5 1694.5" stroke="white"/>
<path d="M2049 1699L2048 1611.5L2083.5 1615.5L2084 1702" stroke="white"/>
<path d="M2043.5 1698.5L2043 1615L1983.5 1612.5" stroke="white"/>
<path d="M2039 1619L1987 1617L1988 1693.5L2039 1695.5V1619Z" stroke="white"/>
<path d="M2130.5 1708.5L2130 1622L2152 1629" stroke="white"/>
<path d="M2130 1622L2121 1624L2083.5 1618" stroke="white"/>
<path d="M2120.5 1624L2121.5 1707" stroke="white"/>
<path d="M2084 1622.5L2116.5 1627.5L2117 1706.5" stroke="white"/>
<path d="M2043 1615L2048 1611.5" stroke="white"/>
<path d="M1770 861L1698 867.5V952.5L1781.5 947.5" stroke="white"/>
<path d="M1740 870.5L1704 874V946.5L1740 944V870.5Z" stroke="white"/>
<path d="M1772 867L1746 869.5V943.5L1782 941" stroke="white"/>
<path d="M1782 1033.5L1698 1041.5V1126.5L1781.5 1121.5" stroke="white"/>
<path d="M1740 1044.5L1704 1048V1120.5L1740 1118V1044.5Z" stroke="white"/>
<path d="M1782 1040.5L1746 1043.5V1117.5L1782 1115" stroke="white"/>
<path d="M1782 1207L1698 1215V1300L1782.5 1295" stroke="white"/>
<path d="M1740 1218L1704 1221.5V1294L1740 1291.5V1218Z" stroke="white"/>
<path d="M1782 1214L1746 1217V1291L1782.5 1288.5" stroke="white"/>
<path d="M1782.5 1383.5L1698 1391V1476L1782.5 1471.5" stroke="white"/>
<path d="M1740 1394L1704 1397.5V1470L1740 1467.5V1394Z" stroke="white"/>
<path d="M1782.5 1390.5L1746 1393V1467L1782.5 1465" stroke="white"/>
<path d="M1771 1559L1702.5 1563M1706.5 1652.5L1782.5 1649.5" stroke="white"/>
<path d="M1711.5 1569.5L1740 1567.5V1644.5L1706.5 1646" stroke="white"/>
<path d="M1771 1565L1746 1567V1644L1778.5 1642.5" stroke="white"/>
<path d="M2159.5 820L2245 812L2246.5 899.5L2158 905.5" stroke="white"/>
<path d="M2245 818.5L2202.5 822V897.5L2246 894.5M2160.5 826L2196.5 822.5V898L2159 901" stroke="white"/>
<path d="M2246 990L2155.5 998.5V1083.5L2247.5 1077.5L2246 990Z" stroke="white"/>
<path d="M2246 996.5L2203.5 1000V1075.5L2247 1072.5M2161.5 1004L2197.5 1000.5V1076L2161.5 1078.5V1004Z" stroke="white"/>
<path d="M2246 1171L2155.5 1179.5V1264.5L2247.5 1258.5L2246 1171Z" stroke="white"/>
<path d="M2246 1177.5L2203.5 1181V1256.5L2247 1253.5M2161.5 1185L2197.5 1181.5V1257L2161.5 1259.5V1185Z" stroke="white"/>
<path d="M2248 1352L2157.5 1360.5V1445.5L2249.5 1439.5L2248 1352Z" stroke="white"/>
<path d="M2248 1358.5L2205.5 1362V1437.5L2249 1434.5M2163.5 1366L2199.5 1362.5V1438L2163.5 1440.5V1366Z" stroke="white"/>
<path d="M2163.5 1539.5L2241 1534.5M2252 1623.5L2160.5 1627" stroke="white"/>
<path d="M2241.5 1540.5L2205.5 1542.5V1619L2249 1617.5M2164.5 1546L2199.5 1543.5L2200 1619.5L2161 1621" stroke="white"/>
<path d="M2677.5 981L2702 985.5L2702.5 1048.5" stroke="white"/>
<path d="M2511.5 603.5V596.5L2510.5 595V589L2508.5 586.5V580L2602 570L2636 651.5L2773 600.5V616L2768.5 619.5V623.5L2765.5 625L2766 663L2763.5 666V669.5L2762.5 671.5L2767 983L2749.04 991.5M2769.5 1142V1059L2750 1056L2749 988.5L2677 975.5M2772 1218L2773 1301.5M2775 1377L2776 1462M2778.5 1538L2779.5 1624M2782 1699.5V1734.5" stroke="white"/>
<path d="M2744.5 1055L2743 993L2707 986.5L2707.5 1049.5" stroke="white"/>
<path d="M2528.5 636L2594 628L2632.5 706L2766 662.5" stroke="white"/>
<path d="M2764 666L2632 709L2593 630.5L2530 638" stroke="white"/>
<path d="M2533 644L2592 637L2631.5 714L2763.5 669.5M2762.5 673L2630.5 717L2590.5 640.5L2534.5 646.5" stroke="white"/>
<path d="M2508.5 586.5L2599.5 577.5L2635.5 663.5L2773 616" stroke="white"/>
<path d="M2768.5 619.5L2634 666.5L2598 581L2510 589" stroke="white"/>
<path d="M2765.5 625.5L2632.5 671.5L2594.5 587L2511 595" stroke="white"/>
<path d="M2602 570.5L2600 577L2598 580.5L2594 587V627.5" stroke="white"/>
<path d="M2636 651.5L2635.5 663.5L2634 666.5L2632.5 671.5" stroke="white"/>
<path d="M2632.5 706L2632 709L2631.5 713.5L2630.5 717" stroke="white"/>
<path d="M2630.5 717.5L2633.5 942L2618.5 948.5L2632.5 1738.5" stroke="white"/>
<path d="M2594 627.5L2593 630.5L2592 637L2590.5 640L2588 642.5L2607.5 1739.5" stroke="white"/>
<path d="M2766.5 983L2677 966L2677.5 1045L2750 1056" stroke="white"/>
<path d="M2680.5 1140L2705 1144.5L2705.5 1207.5" stroke="white"/>
<path d="M2770 1142L2752.05 1151M2772.5 1218L2753 1215L2752 1147.5L2680 1134.5" stroke="white"/>
<path d="M2747.5 1214L2746 1152L2710 1145.5L2710.5 1208.5" stroke="white"/>
<path d="M2769.5 1142L2680 1125L2680.5 1204L2753 1215" stroke="white"/>
<path d="M2683.5 1299L2708 1303.5L2708.5 1366.5" stroke="white"/>
<path d="M2773 1301L2755.06 1310.5M2775.5 1377L2756 1374L2755 1306.5L2683 1293.5" stroke="white"/>
<path d="M2750.5 1373L2749 1311L2713 1304.5L2713.5 1367.5" stroke="white"/>
<path d="M2772.5 1301L2683 1284L2683.5 1363L2756 1374" stroke="white"/>
<path d="M2686.5 1460L2711 1464.5L2711.5 1527.5" stroke="white"/>
<path d="M2776 1462L2758.05 1471M2778.5 1538L2759 1535L2758 1467.5L2686 1454.5" stroke="white"/>
<path d="M2753.5 1534L2752 1472L2716 1465.5L2716.5 1528.5" stroke="white"/>
<path d="M2775.5 1462L2686 1445L2686.5 1524L2759 1535" stroke="white"/>
<path d="M2690.5 1622L2715 1626.5L2715.5 1689.5" stroke="white"/>
<path d="M2780 1624L2762.06 1633.5M2782.5 1700L2763 1697L2762 1629.5L2690 1616.5" stroke="white"/>
<path d="M2757.5 1696L2756 1634L2720 1627.5L2720.5 1690.5" stroke="white"/>
<path d="M2779.5 1624L2690 1607L2690.5 1686L2763 1697" stroke="white"/>
<path d="M2633.5 942.5L2618.5 918V948.5" stroke="white"/>
<path d="M2610 920L2601.5 907.5V985L2610 996V920Z" stroke="white"/>
<path d="M2610 920L2602 921" stroke="white"/>
<path d="M2612.5 1085.5L2604 1074L2606 1155L2614 1164.5L2612.5 1085.5Z" stroke="white"/>
<path d="M2612.5 1085.5L2604.5 1087.5" stroke="white"/>
<path d="M2615.5 1251.5L2606.5 1242L2608 1323.5L2617 1332L2615.5 1251.5Z" stroke="white"/>
<path d="M2615.5 1251.5L2606.5 1253.5" stroke="white"/>
<path d="M2618 1422.5L2609 1413L2610.5 1494.5L2619.5 1503L2618 1422.5Z" stroke="white"/>
<path d="M2618 1422.5L2609 1424.5" stroke="white"/>
<path d="M2622 1592.5L2613 1583L2614.5 1664.5L2623.5 1673L2622 1592.5Z" stroke="white"/>
<path d="M2622 1592.5L2613 1594.5" stroke="white"/>
<path d="M2535.5 897.5L2516.5 868L2518 950.5L2536.5 974" stroke="white"/>
<path d="M2528 898.5L2529 964.5" stroke="white"/>
<path d="M2528 898.5L2516.5 883" stroke="white"/>
<path d="M2528.5 899L2535 897.5" stroke="white"/>
<path d="M2538 1068.5L2519 1039L2520.5 1121.5L2539 1145" stroke="white"/>
<path d="M2530.5 1069.5L2531.5 1135.5" stroke="white"/>
<path d="M2530.5 1069.5L2519 1054" stroke="white"/>
<path d="M2531 1070L2537.5 1068.5" stroke="white"/>
<path d="M2541 1237.5L2522 1214.5L2525 1299.5L2542 1317" stroke="white"/>
<path d="M2532 1238.5L2533.5 1307.5" stroke="white"/>
<path d="M2532 1238.5L2522.5 1227" stroke="white"/>
<path d="M2532 1238.5L2540.5 1237" stroke="white"/>
<path d="M2543 1408L2524 1388V1473L2545 1490.5" stroke="white"/>
<path d="M2534 1409L2535.5 1482.5" stroke="white"/>
<path d="M2534 1409L2524 1399" stroke="white"/>
<path d="M2534 1409L2542.5 1407.5" stroke="white"/>
<path d="M2547 1583L2528 1563V1648L2549 1665.5" stroke="white"/>
<path d="M2538 1584L2539.5 1657.5" stroke="white"/>
<path d="M2538 1584L2528 1574" stroke="white"/>
<path d="M2538 1584L2546.5 1582.5" stroke="white"/>
</svg>
