<svg width="1000" height="632" viewBox="0 0 1000 632" fill="none" xmlns="http://www.w3.org/2000/svg">
<path fill-rule="evenodd" clip-rule="evenodd" d="M599.869 575.863L598.545 577.665L598.501 579.83L596.012 577.624L594.064 575.431L592.919 574.554L592.616 574.412L592.368 574.388L591.885 574.445L589.462 576.149L589.162 576.259L588.855 576.186L587.19 574.146L586.034 573.084L584.813 572.508L583.075 572.113L564.69 572.295L561.578 573.044L559.262 572.808L558.883 572.579L558.583 572.121L558.375 571.727L558.153 571.38L556.25 569.202L555.684 568.26L555.536 568.063L554.778 567.566L552.232 566.478L550.59 566.154L550.234 566.211L548.102 567.008L546.51 567.292L546.02 567.118L545.503 566.795L544.4 565.539L543.91 564.797L543.599 564.482L543.19 564.198L541.946 563.811L541.498 563.801L537.26 566.51L536.736 566.652L534.964 566.644L519.702 563.052L519.528 562.555L519.58 562.153L520.522 560.363L522.015 556.502L521.966 556.021L521.707 555.547L517.29 552.254L517.019 551.772L516.664 550.932L516.456 550.27L516.445 549.725L516.567 549.323L516.741 548.96L517.03 548.179L517.138 547.753L517.616 544.463L517.557 544.045L517.275 543.311L516.697 542.178L515.782 540.916L515.201 540.38L514.661 540.033L513.938 539.836L513.455 539.86L505.811 543.835L505.456 543.888L505.111 543.785L500.881 540.046L498.282 535.309L497.938 534.463L497.83 533.682V533.091L498.108 529.477L497.989 528.916L497.671 528.348L495.523 526.539L494.635 525.481L492.419 522.087L489.211 518.254L486.918 514.728L486.003 513.631L484.951 512.822L484.113 511.862L482.072 508.156L481.817 507.864L481.472 507.644L479.938 507.446L478.265 507.588L477.852 507.533L477.473 507.352L477.117 507.099L475.617 505.073L473.225 501.18L464.099 495.705L461.726 492.839L461.174 492.35L457.029 490.342L455.425 489.235L454.242 486.194L451.608 480.874L451.39 480.574L450.999 480.4L450.455 480.421L449.407 480.926L448.886 481.304L448.427 481.786L445.081 487.383L443.91 487.69L443.125 487.717L436.947 484.191L422.167 487.782L418.263 486.857L416.582 486.026L414.611 483.682L414.407 483.335L413.959 482.244L413.774 481.889L413.5 481.566L413.144 481.274L393.171 480.887L392.007 480.627L391.513 479.885L391.209 478.475L390.815 475.605L390.541 474.982L390.186 474.603L389.807 474.437L388.938 474.232L381.707 474.255L380.999 474.483L375.307 477.749L373.833 479.367L373.179 480.623L373.075 481.001L373.012 481.475L373.245 481.806L380.503 487.597L380.751 487.937L381.153 488.631L381.301 488.994L381.423 489.357L381.471 489.735L381.445 490.122L381.3 490.516L364.588 503.263L356.733 507.144L355.523 506.931L354.49 506.976L353.919 507.702L353.456 508.819L347.829 527.46L347.27 528.769L346.593 529.957L344.621 531.365L340.564 533.224L328.502 535.747L323.778 535.558L322.795 536.252L320.628 539.335L317.198 544.948L306.059 550.672L298.916 558.206L298.484 558.228L298.158 558.023L296.06 555.582L296.008 555.4L295.912 554.943L295.793 554.706L295.686 554.54L295.597 554.438L295.534 554.381L295.445 554.332L295.282 554.275L295.03 554.246L294.479 554.396L289.805 557.14L288.982 557.44L288.912 557.411L288.311 557.529L288.103 557.648L287.907 557.829L287.748 558.208L287.666 558.484L287.522 559.115L287.477 559.431L287.466 559.636L287.481 559.928L287.533 560.196L287.604 560.464L287.73 560.866L287.741 561.016L288.357 574.333L288.254 575.909L287.867 577.323L286.684 578.342L273.332 584.694L271.476 584.197L268.586 582.717L263.717 583.293L256.826 582.701L254.874 581.49L246.993 578.84L245.867 576.329L237.388 560.929L236.374 558.66L230.437 538.562L230.311 538.009L230.211 537.457L229.839 535.847L229.632 535.279L229.384 534.861L229.054 534.656L226.769 534.309L226.298 534.032L225.873 533.551L225.28 532.642L225.006 532.059L224.821 531.538L224.339 528.301L224.12 527.615L223.63 526.498L222.933 525.977L222.275 525.646L197.187 519.844L189.658 521.456L186.239 521.117L184.436 520.29L179.808 516.384L179.303 515.745L178.698 514.648L178.569 514.104L178.502 513.607L178.51 512.968L177.557 497.476L177.753 492.058L177.73 490.941L177.605 489.836L175.886 480.798L174.063 473.896L173.86 473.288L172.221 470.182L171.992 469.543L171.888 468.982L171.861 467.51L171.898 466.463L171.871 464.934L171.756 463.698L171.427 462.854L170.864 461.859L170.627 461.56L170.349 461.315L169.971 461.157L164.344 460.873L162.82 460.25L158.69 456.931L156.619 456.276L156.221 456.04L155.865 455.708L155.46 455.164L155.378 454.722L155.448 454.304L156.597 451.617L156.29 449.689L153.729 443.358L152.929 440.9L151.509 437.137L144.305 424.189L143.738 422.908L143.325 421.229L143.262 420.795L143.173 419.863L143.102 419.421L141.989 414.289L139.237 405.593L139.166 405.135L139.147 404.662L139.159 404.197L139.649 401.898L139.911 401.042L140.562 399.488L140.987 398.241L141.71 396.767L142.935 394.752L142.972 394.578L142.938 394.405L134.061 377.879L126.639 370.435L108.628 362.624L108.173 362.293L107.928 361.835L107.4 360.306L80.1764 340.648L76.6623 339.356L72.9797 338.843L65.1479 339.001L62.1238 337.661L52.979 335.572L39.1182 337.615L38.6626 337.37L38.3478 337.039L38.1663 336.692L36.5626 335.575L36.3848 335.362L36.2849 335.172L36.2108 334.809L35.9589 332.477L35.8293 327.332L35.8408 326.804L35.8926 326.307L36.0074 325.873L36.5548 324.782L36.6734 324.38L36.7289 323.978L36.6437 323.583L36.4289 323.276L28.8421 319.366L28.4017 319.292L27.9425 319.309L27.1806 319.593L25.8369 320.4L24.9106 320.692L24.1184 320.614L22.9469 319.734L22.2502 319.418L20.451 318.976L19.9762 318.755L19.6687 318.519L18.9376 317.632L18.5432 316.93L17.9499 316.141L16.7939 312.603L16.0132 310.65L14.9376 307.088L14.8191 306.322L14.8 305.794L14.8518 305.234L14.9555 304.539L15.074 304.027L17.7726 296.66L17.9503 295.966L18.1429 295.008L18.4059 293.067L18.7652 291.408L19.0948 290.635L19.3318 290.319L19.6355 290.091L20.3474 289.72L20.6585 289.483L20.8955 289.175L22.0555 286.77L22.3037 285.975L22.374 285.359L22.3333 284.831L22.2296 284.405L21.9185 283.41L21.8111 282.59L21.8481 282.022L21.9481 281.51L22.97 278.66L23.5863 276.548L23.8159 275.344L23.7344 274.775L23.4974 274.381L19.4743 272.893L19.152 272.664L18.8928 272.388L18.7039 272.033L18.5446 271.655L17.1169 267.178L16.9539 266.808L16.3146 265.817L16.1554 265.288L16.0369 264.602L15.8517 262.708L15.7591 262.117L15.5332 261.261L14.9054 259.573L14.7424 258.95L14.5758 257.894L14.6064 257.263L14.7434 256.766L14.9619 256.435L16.5697 254.71L16.8068 254.316L16.9364 253.559V252.778L16.8549 251.597L16.8855 250.895L16.9596 250.319L17.0855 249.893L17.2485 248.951L17.2966 248.454L17.6411 246.996L17.7559 246.31L17.867 245.193L17.7892 244.554L17.63 244.057L16.2174 241.68L15.6777 241.128L14.9811 240.733L12.0259 240.299L11.2181 239.992L10.847 239.771L10.5322 239.487L10.2729 239.053L8.77257 235.451L8.3896 233.763L8.30812 233.053L8.24146 231.773L8.23755 231.031L8.29681 230.479L8.42274 229.998L8.55237 229.682L8.90422 229.13L10.7724 226.963L11.0094 225.846L10.569 224.658L9.86459 222.094L9.76459 221.597L9.68311 220.974L9.7757 220.508L9.93496 220.114L10.6353 219.16L11.0524 218.434L11.6379 216.889L12.1776 215.099L12.3368 214.146L12.3139 213.46L12.1324 213.097L11.0761 211.96L10.8242 211.62L10.6316 211.194L10.5353 210.571L10.6057 210.098L10.7909 209.703L12.4101 208.57L12.6842 208.293L12.8916 207.978L12.9146 207.56L12.7961 207.205L12.559 206.897L12.2479 206.605L11.985 206.242L11.7627 205.73L11.778 205.28L11.9003 204.87L15.5714 198.069L16.2947 196.043L18.2547 188.53L18.6795 185.754L18.8869 176.834L18.998 175.607L19.124 174.905L19.261 174.329L19.8084 173.216L20.5088 172.151L20.731 171.639L21.0199 170.85L21.131 170.219L21.1791 169.627L21.1753 169.106L21.0161 167.141L20.9568 165.686L21.0531 164.295L21.1865 163.546L21.3828 162.986L21.6124 162.67L28.1695 158.129L28.4918 157.829L28.5955 157.639L29.0969 156.135L29.3895 154.879L29.6266 154.138L29.8303 153.625L31.0132 151.477L31.1762 150.877L31.291 150.309L31.6892 147.435L31.7336 146.632L31.6558 146.04L31.3892 145.803L30.9873 145.767L28.7977 146.28L27.8829 146.114L27.171 145.688L21.7622 139.436L21.5918 139.073L21.4622 138.489L21.4029 137.716L21.4511 136.308L21.5622 135.535L21.7029 134.927L21.8844 134.541L22.3207 133.87L22.5763 133.57L22.8392 133.168L23.0985 132.687L23.3615 131.896L23.4355 131.257L23.4126 130.681L23.1385 129.572L22.6866 128.341L22.594 127.765L22.5596 127.047L22.6337 123.879L22.5596 122.897L22.4929 122.424L22.4115 121.974L22.3041 121.548L22.1003 121.201L21.7855 120.956L18.75 120.467L18.3289 120.254L18.0178 119.939L17.8215 119.387L17.8292 118.945L17.8921 118.566L18.0958 117.959L18.3736 117.241L18.9325 116.124L19.3573 115.437L21.2292 113.342L21.4329 112.979L21.6069 112.585L22.3725 109.474L22.5206 109.072L22.7058 108.693L22.928 108.362L23.1799 108.054L23.4614 107.778L24.5943 107.218L25.3332 106.665L26.0377 105.12L25.3217 103.713L24.5255 102.743L23.8251 101.545L23.6992 101.071L23.6066 100.551L23.5547 99.8484L23.5854 99.2883L23.8594 97.3231L23.9446 96.8577L24.0668 96.4317L24.2039 96.0214L24.9272 94.517L26.822 91.2762L27.7331 90.0392L32.8855 86.6942L33.3217 86.1341L38.0186 78.4004L40.4837 75.2329L41.7356 74.2176L42.4552 73.7995L45.1501 73.3419L48.2926 73.2767L51.3475 74.0877L52.5649 74.7662L52.9278 75.1606L53.1389 75.5945L53.1504 76.06L53.0911 76.5333L52.906 77.4587L53.4111 78.3478L54.4293 79.5462L59.2409 83.882L59.3483 84.308L59.3789 84.805L59.3904 85.3257L59.4172 85.8148L59.532 86.375L59.758 86.9114L60.2328 87.5899L60.5772 87.6429L60.892 87.493L61.6654 86.5652L62.052 85.8316L63.4146 82.7004L64.0002 81.5959L65.6498 79.3452L65.872 78.9586L65.9127 78.8639L66.0164 78.4537L66.1535 77.5488L66.372 76.6455L66.6868 75.84L66.9239 75.4535L67.2424 75.1142L67.7705 74.8539L72.6204 75.272L73.256 75.0984L74.1364 74.1486L77.2101 68.8732L77.5816 68.1079L77.7112 67.674L77.8112 67.2086L77.8705 66.7116L77.9853 66.2145L78.5175 65.6939L79.5012 65.1574L81.5797 64.6604L82.4601 64.2265L82.9423 63.761L83.0794 62.2116L83.1683 61.7067L83.2942 61.2097L83.5053 60.6969L83.9801 59.9396L85.8635 57.8442L86.082 57.4971L86.2301 57.079L86.3079 56.6372L86.2734 56.1875L86.0697 55.8483L85.729 55.6116L83.7768 54.6413L83.4768 54.3967L83.3434 54.0654L83.4323 53.6867L84.5538 52.1949L88.3932 48.868L89.0935 48.016L89.3491 47.6058L89.5158 47.1798L90.0517 45.4434L90.248 44.9937L91.8021 42.3809L91.8947 41.9706L91.9354 41.5683L92.0058 41.1502L92.165 40.7084L92.3798 40.2587L92.9424 39.3901L94.8221 37.1559L95.6258 35.5702L96.3491 34.9391L99.2124 33.5735L99.6528 33.1712L99.9824 32.7294L101.345 30.2427L101.946 29.5012L102.459 29.154L103.045 28.9095L103.378 28.5703L105.15 26.0749L105.402 25.6174L105.735 24.7062L105.943 24.2407L106.291 23.7279L106.697 23.507L111.754 22.3L121.381 29.7323L121.484 30.1031L121.621 30.8683L121.807 31.6178L122.095 33.1388L122.524 34.6109L122.635 35.0527L122.81 35.5497L123.113 36.2282L123.465 36.6226L126.283 38.221L126.342 38.6706L126.22 39.1519L125.814 40.0465L125.025 42.6396L124.936 43.0656L124.913 43.468L125.058 44.1228L125.391 44.9827L127.228 48.7458L128.901 51.3223L130.206 52.1499L140.645 55.0121L141.131 55.4538L141.324 55.8799L141.301 56.2822L141.145 57.5216L141.06 57.9397L140.967 58.7594L140.948 59.5546L141.048 60.439L141.163 61.0149L141.259 61.9142L141.248 62.3244L141.211 62.7426L140.74 65.2537L140.696 65.6639L140.677 66.4591L140.7 66.8457L140.77 67.3032L141.029 68.5466L141.077 69.0751L141.066 69.5564L141.039 69.9745L141.031 70.3768L140.842 72.4154L140.823 73.2106L140.846 74.0019L140.761 74.8168L140.152 78.1397L139.967 78.8339L138.252 82.8984L137.897 83.4585L136.982 84.4999L136.708 84.9101L136.512 85.344L136.393 85.7621L136.175 87.4456V87.9111L136.212 88.4791L136.419 88.8657L136.806 89.1339L139.688 90.1042L140.178 90.3725L140.668 90.901L141.093 91.8241L141.452 93.0106L141.597 93.7127L141.634 94.2334L141.552 94.5805L141.356 94.8408L140.307 95.2274L140.192 95.8033L140.318 96.7208L140.835 98.7901L140.939 99.7542L140.805 100.456L138.96 102.784L138.627 103.1L133.31 106.863L133.017 107.226L132.81 107.683L132.869 109.094L132.861 109.599L132.787 110.017L132.642 110.459L132.137 111.364L131.2 112.567L130.944 113.009L130.777 113.577L130.911 113.987L131.188 114.342L134.68 116.832L136.218 118.574L136.559 118.794L136.965 118.921L140.364 118.834L141.907 118.439L142.27 118.581L142.649 118.818L144.015 119.982L144.398 120.14L144.724 120.061L145.054 119.808L146.306 118.308L146.658 118.039L156.063 116.248L156.484 116.299L156.886 116.441L160.698 119.357L161.46 120.167L161.927 120.798L162.261 121.169L162.632 121.334L164.255 121.192L164.668 121.262L165.081 121.498L165.263 121.838L165.392 122.201L165.526 122.958L165.7 124.505L165.933 125.343L166.679 127.389L166.791 127.791L166.825 128.146L166.725 128.47L163.797 131.138L163.549 131.493L163.423 131.856L163.56 132.195L165.485 134.474L165.826 134.766L166.182 134.987L166.588 135.065L167.407 134.999L167.946 135.118L168.593 135.394L169.619 136.242L170.756 136.565L177.26 135.554L179.009 135.696L180.636 135.451L180.995 135.309L181.284 135.096L181.406 134.765L181.429 134.386L181.399 133.605L181.433 133.219L181.578 132.832L181.848 132.517L184.282 130.701L184.605 130.369L184.875 129.999L185.219 129.691L185.744 129.549L201.599 129.644L202.812 129.328L203.72 128.476L206.663 124.022L207.41 123.249L208.19 123.138L211.547 124.245L213.324 124.071L222.005 120.992L222.622 121.028L228.696 122.578L229.217 122.333L229.6 121.939L233.022 116.535L234.542 114.692L236.272 113.104L236.984 112.67L249.237 112.086L250.27 112.315L250.683 112.701L251.127 112.922L251.541 113.049L254.901 112.891L255.705 112.686L256.455 112.307L257.903 111.281L259.924 110.816L264.628 111.518L275.293 117.095L276.464 117.355L276.646 116.969L276.771 116.574L276.92 116.235L277.179 115.998L283.227 113.879L284.463 113.768L291.82 117.001L292.728 117.601L293.566 118.603L293.759 118.95L293.896 119.313L293.926 119.708L293.885 120.102L293.804 120.505L293.781 120.899L293.8 121.293L293.863 121.672L293.952 122.051L294.011 122.43L294.015 122.816L293.867 123.234L292.627 125.456L292.468 125.874L292.379 126.284L292.331 126.679V127.073L292.249 127.483L292.09 127.901L291.827 128.327L290.537 129.901L289.174 131.21L288.9 131.62L288.722 132.007L288.703 132.393L288.933 133.111L289.022 133.49L289.045 133.877L288.956 134.287L288.715 135.106L288.652 135.603L288.664 136.242L288.745 137.465L289.056 138.782L289.55 139.946L292.118 142.129L298.511 144.091L299.464 144.065L302.595 144.896L302.814 145.251L302.81 145.662L302.4 146.53L302.237 146.996L302.203 147.43L302.421 147.871L302.766 148.005L304.611 147.987L305.403 148.24L305.809 148.547L306.038 148.918L306.046 149.312L306.012 149.715L306.024 150.22L306.127 150.725L306.663 151.387L306.93 151.393L307.5 151.046L311.022 150.121L311.604 150.166L312.021 150.387L312.309 150.702L312.454 151.073L312.669 151.876L312.821 152.31L313.095 152.412L313.424 152.384L313.717 152.202L313.861 151.91L313.947 151.185L314.084 150.853L314.551 150.804L315.308 150.962L316.361 151.704L317.027 152.027L317.563 152.177L321.418 151.514L321.831 151.672L322.233 151.917L325.379 155.084L325.854 155.25L326.241 155.221L326.426 154.937L326.585 154.559L326.796 154.133L327.39 153.273L329.043 151.485L329.533 150.639L330.115 149.355L330.338 148.961L330.575 148.637L330.919 148.471L333.759 148.022L339.918 143.849L340.207 143.565L340.311 143.226L340.381 142.445L340.481 142.051L340.667 141.664L340.959 141.356L342.777 140.153L349.051 134.393L350.146 134.372L358.747 137.519L363.333 140.287L364.076 140.556H364.914L365.683 140.358L365.983 140.177L366.131 139.917L366.172 139.57L366.09 138.82L366.024 137.273L366.094 136.879L366.216 136.492L366.45 136.121L369.187 133.398L369.78 132.546L369.939 132.128L369.988 131.725L369.891 131.355L369.114 129.932L365.459 124.367L365.296 124.004L365.173 123.657L365.129 123.35L365.333 123.129L366.389 122.797L370.895 120.498L372.269 120.372L372.866 121.019L373.299 121.343L373.861 121.611L374.703 121.8L375.733 121.658L378.256 120.498L378.895 120.648L379.385 120.98L381.069 123.122L382.818 124.763L383.32 125.45L383.71 126.175L383.984 126.538L384.363 126.925L384.773 127.075L396.015 126.17L397.489 126.627L398.974 128.021L400.096 129.445L400.911 130.818L407.376 132.801L411.02 132.667L412.302 132.091L413.416 131.223L415.147 130.305L415.69 130.14L416.521 130.103L418.745 130.616L424.058 137.123L424.889 137.872L432.273 139.041L432.794 139.317L433.491 139.853L435.86 142.45L436.377 144.104L436.606 145.798L436.44 147.314L436.114 148.7L435.337 149.813L428.481 156.503L428.151 157.213L428.059 157.536L428.07 157.678L429.215 160.022L430.681 162.301L430.855 162.791L430.91 163.24L430.855 164.095L430.878 164.615L431 165.349L431.241 165.83L431.589 166.217L433.763 167.45L434.399 168.113L435.417 169.503L437.499 171.779L437.729 172.198L437.903 172.6L438.066 173.349L440.427 179.489L440.852 180.977L441.227 181.983L441.583 182.393L441.97 182.606L444.733 182.449L445.51 182.567L451.922 181.92L458.774 183.38L459.371 183.703L462.847 187.315L464.826 190.055L465.243 191.588L465.495 193.096L466.934 221.985L474.249 219.331L477.606 219.962L480.109 221.054L480.998 220.668L481.56 220.218L486.491 213.447L486.977 213.116L487.409 212.997L505.714 214.502L507.008 213.989L512.283 209.8L512.754 209.114L513.14 208.009L515.047 205.579L522.335 202.189L525.761 205.901L525.431 207.075L527.02 209.403L529.006 211.753L529.626 213.292L530.116 214.964L530.53 216.779L531.203 218.52L532.122 220.281L534.603 221.373L535.311 221.507L536.409 221.918L537.259 222.052L538.059 222.003L539.571 221.443L564.456 223.041L564.915 223.309L569.444 227.6L572.514 231.94L573.413 232.837L574.321 233.2L589.399 234.084L589.873 233.95L593.586 231.74L594.203 231.543L595.018 231.433L597.479 231.788L598.115 231.753L601.2 230.528L601.575 230.307L602.999 228.949L606.031 228.105L610.238 228.413L614.506 229.509L618.479 229.415L620.022 228.996L621.588 227.916L622.296 227.617L624.462 227.845L625.19 228.106L625.718 228.437L626.007 228.784L626.505 229.534L627.366 230.283L628.277 230.37L638.501 235.119L638.742 235.443L639.86 238.013L639.986 238.384L640.078 238.762L640.123 239.141V239.528L640.146 239.922L640.205 240.277L640.323 240.561L640.62 240.59L640.935 240.463L642.136 239.458L652.667 233.639L654.018 233.339L655.101 233.512L656.541 234.319L660.143 237.275L660.84 237.409L663.733 237.259L667.615 238.588L667.963 238.943L668.026 239.59L668.07 239.882L668.163 240.253L668.657 241.308L669.311 243.263L669.418 243.673L669.5 244.068L669.604 244.423L669.718 244.999L669.811 245.354L670.041 246.614L671.541 251.367L672.023 252.46L672.498 253.059L676.594 256.728L678.757 259.452L699.573 271.535L699.824 271.811L700.047 272.111L701.157 274.229L702.018 276.959L702.166 277.338L702.44 277.787L702.853 278.253L703.684 278.923L704.224 279.089L704.652 279.118L705.119 278.857L708.813 275.541L717.732 270.699L723.057 270.502L726.578 268.725L733.051 266.964L771.089 267.861L771.682 267.545L772.149 267.017L773.646 261.688L774.021 260.645L774.147 260.163L774.236 259.651L774.28 259.138L774.199 257.748L774.21 257.243L774.325 255.742L774.317 254.796L774.29 254.331L774.324 253.834L774.417 253.368L774.595 252.99L776.279 251.404L780.463 250.295L780.991 250.003L783.146 247.708L785.543 245.718L788.245 244.167L788.468 243.852L788.601 243.394L788.701 242.929L788.853 242.519L789.127 242.242L789.517 242.069L791.565 241.635L792.966 240.925L793.563 240.412L794.022 239.734L795.006 237.838L795.362 237.515L795.832 237.231L797.811 236.765L798.159 236.576L798.23 236.519L798.482 236.219L798.674 235.903L798.871 235.517L799.026 235.091L799.145 234.594L799.245 234.112L799.315 233.6L799.307 233.126L799.326 232.653L799.292 232.203V231.73L799.261 231.272L799.313 230.404L799.387 230.088L799.658 229.867L801.116 229.323L806.134 228.418L817.553 227.342L819.046 227.492L819.272 227.894L819.264 228.328L819.298 229.156L819.387 229.983L819.502 232.018L819.628 232.799L819.865 233.92L821.258 238.84L821.809 240.238L822.009 240.578L826.17 245.017L826.668 245.687L826.761 246.082L826.92 247.293L827.079 249.321L827.179 249.794L827.357 250.347L827.72 250.71L837.026 254.503L837.289 254.858L837.451 255.253L837.522 255.679L837.615 256.073L837.763 256.523L838.302 257.564L843.822 261.174L844.863 261.403L845.889 260.898L850.659 255.521L854.544 252.369L855.964 251.699L857.021 251.533L857.932 251.628L860.007 252.525L862.487 254.339L863.562 254.765L865.534 254.892L869.224 253.991L878.958 255.746L879.575 256.006L879.908 256.361L879.993 256.764L879.97 257.245L879.346 260.869L879.268 261.827L879.9 262.618L881.159 263.674L889.228 268.57L889.443 268.854L889.621 269.201L889.78 269.564L889.873 269.958L889.924 270.376L889.89 270.842L889.797 271.339L889.675 271.788L889.583 272.246L889.594 272.672L889.672 273.074L889.835 273.421L890.098 273.713L899.335 279.156L900.364 279.432L903.698 276.77L908.594 274.083L908.898 274.233L909.09 274.565L909.327 275.518L909.605 275.731L909.984 275.81L910.73 275.668L912.066 275.069L916.641 271.314L917.054 271.109L917.674 270.959L918.072 271.062L918.42 271.283L923.772 277.329L923.964 277.66L924.238 278.847L924.501 279.596L925.16 282.354L925.334 282.693L925.724 283.285L926.605 284.174L928.779 285.691L929.445 285.88L933.357 285.249L933.965 285.302L934.348 285.499L934.67 285.751L934.889 286.075L935.255 286.753L935.566 287.471L935.681 287.85L936.259 289.305L936.382 289.684L936.459 290.094L936.596 291.841L936.573 292.306L936.577 292.764L936.566 293.237L936.6 293.671L936.967 294.145L940.29 296.295L940.53 296.587L940.716 296.918L940.871 297.289L941.101 298.039L941.29 298.83L941.357 299.24L941.668 300.457L942.034 301.42L946.314 315.342L946.366 315.531L946.389 315.737L946.37 316.005L946.3 316.399L945.159 319.796L945.107 320.229L945.185 320.616L945.281 320.979L945.695 322.053L945.809 322.424L946.12 323.126L946.522 323.513L949.129 325.025L949.65 325.562L949.876 325.956L950.176 326.698L950.635 328.161L950.909 329.29L951.024 329.661L951.124 330.039L951.446 330.458L951.997 330.884L956.548 332.29L959.94 331.517L960.771 331.55L962.957 332.394L966.153 334.86L967.393 336.161L968.802 338.466L969.3 338.861L973.036 340.508L973.836 340.455L974.559 340.21L976.147 339.17L976.484 339.028L976.86 339.043L977.239 339.279L977.863 340.315L978.915 342.439L979.899 344.102L980.24 344.457L980.699 344.82L989.675 349.011L990.042 349.051L992.561 348.294L993.851 347.474L994.203 347.364L994.566 347.409L998.351 350.96L998.614 351.362L998.811 351.867L998.97 352.784L999.004 354.248L998.793 356.906L998.134 357.687L991.493 359.364L990.839 359.813L986.781 363.774L986.577 364.184L986.459 364.618L986.44 365.028L986.495 365.415L986.71 366.164L987.134 367.22L988.934 370.195L988.615 370.756L987.788 371.529L949.896 394.29L948.955 394.338L935.508 405.745L925.788 408.065L925.477 408.004L923.988 406.845L921.887 404.464L911.678 395.783L908.16 391.113L907.897 390.837L907.507 390.624L894.197 392.125L866.908 416.202L866.307 417.11L866.122 418.143L866.081 419.26L866.196 422.756L866.148 423.887L865.922 424.963L865.244 425.856L858.875 431.364L857.945 431.719L856.969 431.269L848.329 423.564L847.108 422.861L845.539 422.372L834.974 423.428L833.217 424.679L819.988 423.007L819.039 422.605L818.269 421.749L817.588 420.701L817.037 419.564L816.737 418.455L816.285 415.03L816.1 414.112L815.8 413.694L815.417 413.497L804.539 410.39L803.938 410.401L803.272 410.606L801.266 412.342L800.837 412.595L794.096 412.721L793.61 412.894L793.074 413.226L785.472 420.365L784.622 420.791L783.868 420.877L772.312 418.643L759.32 419.061L755.339 420.849L754.547 420.975L754.022 420.873L752.104 417.595L751.404 416.735L751.278 416.38L751.248 415.977L751.403 412.449L751.474 412.031L751.648 411.652L752.325 410.71L752.373 410.379L752.255 410.055L752.014 409.771L751.732 409.527L751.373 409.408L750.24 409.416L749.877 409.258L749.551 409.038L748.281 407.547L747.958 407.303L747.568 407.137L746.952 407.215L744.766 408.091L744.027 408.186L742.986 408.121L741.516 408.531L741.061 408.486L740.738 408.352L740.572 408.194L740.298 408.013L739.815 408.115L739.226 408.557L737.266 411.044L736.776 411.288L733.545 411.69L733.12 411.564L732.765 411.351L729.58 407.931L729.151 407.82L728.672 407.898L721.981 411.669L721.247 411.882L709.755 409.857L708.14 409.968L706.617 410.488L701.495 414.121L701.128 414.215L700.73 414.252L700.305 414.179L699.892 414.013L699.533 413.792L699.233 413.532L697.974 411.618L697.193 410.753L694.387 408.861L692.649 408.12L687.455 407.812L681.732 409.23L681.311 409.152L679.072 407.857L678.183 407.557L675.967 407.407L671.68 405.679L670.995 405.744L670.52 405.965L670.268 406.217L670.024 406.722L669.846 407.487L669.207 413.097L669.184 413.539L669.254 414.379L669.354 414.782L669.143 415.919L668.002 415.911L667.237 415.69L666.425 415.178L666.107 416.287L665.825 416.382L665.651 416.705L665.562 417.178L665.539 422.01L665.798 422.609L666.143 422.917L667.459 423.185L667.734 423.382L667.911 423.69L668.034 424.037L668.134 424.416L668.426 426.008L668.622 427.655L668.541 428.318L668.363 429.121L667.85 430.568L667.471 431.207L667.108 431.625L662.232 434.662L660.505 435.128L659.449 436.045L658.476 437.57L657.477 443.436L657.34 445.026L657.355 445.846L657.604 446.201L657.994 446.374L659.299 446.682L659.625 446.903L659.881 447.179L660.066 447.51L660.203 447.865L660.425 448.615L660.976 451.289L661.028 451.723L661.005 452.204L658.528 459.558L657.912 460.741L655.473 463.95L655.299 464.32L655.255 464.746L655.481 465.22L655.77 465.559L656.815 466.285L657.089 466.561L657.326 466.861L657.485 467.208L657.578 467.586L657.637 467.997L657.656 468.73L656.952 478.256L657.063 492.312L656.926 493.442L656.563 494.547L653.91 497.445L653.535 499.553L653.602 504.135L653.509 505.937L653.012 506.607L645.903 509.131L635.962 509.273L635.3 509.881L629.868 518.295L629.646 518.579L629.461 518.768L629.209 518.958L628.535 519.147L628.145 519.09L627.77 518.924L626.437 518.003L626.115 518.036L625.717 518.454L624.925 521.124L623.8 526.591L623.421 527.737L622.885 528.858L621.736 530.11L620.91 530.741L616.611 532.714L615.838 533.337L615.708 534.305L615.789 535.404L617.822 547.031L618.007 548.935L617.452 550.863L616.331 553.485L606.39 568.989L599.844 575.723L599.869 575.863Z" fill="#F2FAFF" stroke="#004595" stroke-opacity="0.3" stroke-linecap="round" stroke-linejoin="round"/>
<circle cx="367.5" cy="412.5" r="6.5" fill="#004595"/>
<circle cx="342" cy="260" r="4" fill="#EA5B0A"/>
<circle cx="395" cy="231" r="4" fill="#EA5B0A"/>
<circle cx="251" cy="171" r="4" fill="#EA5B0A"/>
<circle cx="279" cy="231" r="4" fill="#EA5B0A"/>
<circle cx="205" cy="207" r="4" fill="#EA5B0A"/>
<circle cx="512" cy="239" r="4" fill="#EA5B0A"/>
<circle cx="361" cy="163" r="4" fill="#EA5B0A"/>
<circle cx="306" cy="215" r="4" fill="#EA5B0A"/>
<circle cx="216" cy="391" r="4" fill="#EA5B0A"/>
<circle cx="573" cy="457" r="4" fill="#EA5B0A"/>
<circle cx="560" cy="442" r="4" fill="#EA5B0A"/>
<path d="M356.56 403V395.128H357.556V398.428H359.86V399.292H357.556V403H356.56ZM362.512 403.144C361.872 403.144 361.312 402.976 360.832 402.64C360.352 402.304 359.976 401.832 359.704 401.224C359.44 400.608 359.308 399.876 359.308 399.028C359.308 398.188 359.44 397.468 359.704 396.868C359.976 396.26 360.352 395.796 360.832 395.476C361.312 395.148 361.872 394.984 362.512 394.984C363.16 394.984 363.728 395.148 364.216 395.476C364.704 395.796 365.08 396.26 365.344 396.868C365.616 397.468 365.752 398.188 365.752 399.028C365.752 399.876 365.616 400.608 365.344 401.224C365.08 401.832 364.704 402.304 364.216 402.64C363.728 402.976 363.16 403.144 362.512 403.144ZM362.512 402.268C362.968 402.268 363.36 402.136 363.688 401.872C364.024 401.6 364.28 401.224 364.456 400.744C364.632 400.256 364.72 399.684 364.72 399.028C364.72 398.38 364.632 397.82 364.456 397.348C364.28 396.868 364.024 396.5 363.688 396.244C363.36 395.988 362.968 395.86 362.512 395.86C362.064 395.86 361.672 395.988 361.336 396.244C361.008 396.5 360.756 396.868 360.58 397.348C360.404 397.82 360.316 398.38 360.316 399.028C360.316 399.684 360.404 400.256 360.58 400.744C360.756 401.224 361.008 401.6 361.336 401.872C361.672 402.136 362.064 402.268 362.512 402.268ZM367.459 403V395.128H371.995V395.98H368.455V403H367.459ZM373.987 403.144C373.811 403.144 373.663 403.132 373.543 403.108C373.431 403.092 373.319 403.064 373.207 403.024L373.411 402.124C373.483 402.148 373.555 402.168 373.627 402.184C373.707 402.2 373.803 402.208 373.915 402.208C374.171 402.208 374.379 402.156 374.539 402.052C374.699 401.948 374.831 401.788 374.935 401.572L375.103 401.152L372.415 395.128H373.483L374.947 398.632L375.547 400.18H375.595L376.147 398.632L377.503 395.128H378.523L375.943 401.572C375.743 402.052 375.491 402.436 375.187 402.724C374.883 403.004 374.483 403.144 373.987 403.144Z" fill="black"/>
</svg>
