<svg width="150" height="150" viewBox="0 0 150 150" fill="none" xmlns="http://www.w3.org/2000/svg">
<path d="M45.3125 131.25V110.938H31.25V101.562H45.3125V84.375H31.25V75H45.3125V18.75H85.9375C95.0852 18.75 102.841 21.9337 109.205 28.3012C115.568 34.6687 118.75 42.4292 118.75 51.5825C118.75 60.7358 115.568 68.4896 109.205 74.8438C102.841 81.1979 95.0852 84.375 85.9375 84.375H54.6875V101.562H81.25V110.938H54.6875V131.25H45.3125ZM54.6875 75H85.9375C92.5 75 98.0469 72.7344 102.578 68.2031C107.109 63.6719 109.375 58.125 109.375 51.5625C109.375 45 107.109 39.4531 102.578 34.9219C98.0469 30.3906 92.5 28.125 85.9375 28.125H54.6875V75Z" fill="#EA5B0A"/>
</svg>
