<svg width="50" height="39" viewBox="0 0 50 39" fill="none" xmlns="http://www.w3.org/2000/svg">
<path d="M16.8199 0.693188L18.7657 3.69576C14.3646 6.16771 11.6731 8.98954 9.99 11.725C8.24931 14.554 7.60439 17.2631 7.23987 19.3325L7.06452 20.328L7.96216 19.8633C9.33992 19.15 11.182 18.8862 13.0207 19.057L13.0208 19.057C17.7641 19.4961 21.4884 23.3863 21.4884 28.208C21.4884 30.6424 20.5213 32.9772 18.7998 34.6986C17.0784 36.4201 14.7436 37.3872 12.3092 37.3872C9.48592 37.3872 6.77838 36.0936 5.07366 34.2839C2.31713 31.3561 0.831848 28.0874 0.831848 22.7074C0.831848 13.4001 7.28557 4.97965 16.8199 0.693188ZM44.4748 0.693188L46.4206 3.69576C42.0194 6.16771 39.328 8.98954 37.6449 11.725C35.9042 14.554 35.2593 17.2631 34.8947 19.3325L34.7194 20.328L35.617 19.8633C36.9948 19.15 38.8368 18.8862 40.6755 19.057L40.6757 19.057C45.4189 19.4961 49.1432 23.3863 49.1432 28.208C49.1432 30.6424 48.1762 32.9772 46.4547 34.6986C44.7333 36.4201 42.3985 37.3872 39.964 37.3872C37.1408 37.3872 34.4332 36.0936 32.7285 34.2839C29.972 31.3561 28.4867 28.0874 28.4867 22.7074C28.4867 13.4001 34.9404 4.97965 44.4748 0.693188Z" stroke="#006FB9"/>
</svg>
