<svg width="151" height="145" viewBox="0 0 151 145" fill="none" xmlns="http://www.w3.org/2000/svg">
<path d="M150.25 88.4948V144.056H30.9315V125.058H69.3786V107.959H105.536V88.4948H150.25ZM66.4256 10.0942C66.4256 15.6192 70.9042 20.0978 76.4292 20.0978C81.9542 20.0978 86.4327 15.6192 86.4327 10.0942C86.4327 4.56921 81.9542 0.0906372 76.4292 0.0906372C70.9042 0.0906372 66.4256 4.56921 66.4256 10.0942ZM112.104 58.4841C111.14 60.7138 108.489 61.6174 106.259 60.593L87.6982 51.8549C86.6137 51.3728 85.7095 50.4085 85.3482 49.2639L82.2143 40.4055L77.8756 62.1097L92.5143 62.4109C95.6476 62.471 98.1184 65.1228 98.0583 68.2561L97.275 98.6127C97.2149 101.746 94.6238 104.217 91.55 104.217C91.55 104.217 91.4899 104.217 91.4292 104.217C88.2351 104.157 85.7649 101.505 85.825 98.3716L86.4881 73.6793L68.2333 73.2573L64.0149 94.1579C63.8339 95.0014 63.4726 95.9055 62.9905 96.6287L47.381 119.082C45.3923 121.974 41.5357 122.577 38.6429 120.588C35.8107 118.6 35.1476 114.743 37.1964 111.91L52.0226 90.7829L61.5244 36.9406L42.6208 54.3978C42.2899 54.7031 41.9226 54.9448 41.5357 55.1264L43.3048 56.8954L38.1381 62.0621L46.7488 70.6728L39.8601 77.5615L12.3054 50.0061L19.194 43.1174L27.8048 51.7281L32.9714 46.5615L35.8542 49.4436C36.0738 48.9734 36.3798 48.5347 36.7786 48.1555L60.4571 25.674C63.5821 22.9847 68.5952 21.3621 72.9345 22.0853L77.0321 22.8686C82.5161 23.8329 86.7339 27.5692 88.4821 32.4502L92.9417 44.6835L109.875 52.6383C112.104 53.6031 113.068 56.2543 112.104 58.4841ZM38.9994 56.8954L32.9714 50.8674L29.9577 53.8811L35.9857 59.9091L38.9994 56.8954ZM32.9714 74.1168L31.2494 75.8389L27.8054 72.3942L29.5274 70.6722L19.194 60.3389L17.472 62.0609L14.0274 58.6162L15.7494 56.8942L10.5827 51.7275L0.25 62.0615L27.8054 89.6168L38.1387 79.2835L32.9714 74.1168Z" fill="#006FB9"/>
</svg>
