<svg width="151" height="196" viewBox="0 0 151 196" fill="none" xmlns="http://www.w3.org/2000/svg">
<g clip-path="url(#clip0_2_34)">
<path d="M94.6432 12.0313L85.0266 47.857L87.3778 2.57062C74.0838 -3.19047 62.4614 2.57062 62.4614 2.57062L64.8126 47.857L55.2182 12.0313C28.5077 19.4639 11.5811 41.2156 11.5811 70.2885H138.303C138.303 41.2156 121.365 19.4639 94.6432 12.0313Z" fill="#F2FAFF"/>
<path d="M12.0827 69.7885C12.2743 41.366 28.8071 20.1058 54.8663 12.6501L64.3296 47.9863L65.3119 47.8311L62.9783 2.88296C63.0377 2.85667 63.1059 2.82702 63.1825 2.7944C63.5167 2.6522 64.012 2.45384 64.649 2.23284C65.9234 1.79071 67.7626 1.2588 70.0122 0.904106C74.4384 0.206233 80.4413 0.195857 86.8604 2.89341L84.5272 47.8311L85.5095 47.9866L94.9949 12.65C121.066 20.1055 137.609 41.366 137.801 69.7885H12.0827Z" stroke="#004595" stroke-opacity="0.3"/>
<path d="M150.694 75.4813H0.694061V87.4715H17.1527L17.0747 91.483C17.0747 91.483 17.0859 92.8871 17.0747 93.7229C16.083 96.7873 16.3615 98.7373 19.0694 113.079C18.7685 113.38 18.4788 113.703 18.2113 114.059C14.3223 119.23 16.2501 128.98 17.8102 134.552C18.6236 139.477 20.4957 142.72 22.2675 144.748C26.7582 171.815 50.4712 195.238 73.7273 195.238C98.4543 195.238 123.07 172.305 128.185 144.837C129.968 142.798 131.862 139.633 132.631 134.808C134.492 128.078 135.907 119.219 132.464 114.282C133.589 109.914 134.726 104.097 135.049 97.6787C135.506 96.6313 135.55 95.4278 135.138 94.3023C135.138 93.6894 135.138 93.1211 135.116 92.6865L135.16 91.9845C135.183 91.6391 135.16 91.2936 135.093 90.9482L134.469 87.4715H150.672L150.694 75.4813Z" fill="#F2FAFF"/>
<path d="M150.173 86.9715H134.469H133.872L133.977 87.5598L134.601 91.0365L134.603 91.0432C134.661 91.3474 134.681 91.6501 134.661 91.9523L134.661 91.9528L134.617 92.6549L134.615 92.6835L134.616 92.7121C134.638 93.131 134.638 93.6846 134.638 94.3023V94.391L134.669 94.4743C135.037 95.4796 134.996 96.5498 134.591 97.4788L134.554 97.5625L134.549 97.6536C134.228 104.03 133.099 109.813 131.979 114.157L131.922 114.38L132.054 114.568C133.682 116.903 134.191 120.218 134.037 123.851C133.883 127.471 133.074 131.328 132.149 134.675L132.141 134.702L132.137 134.73C131.384 139.455 129.534 142.534 127.808 144.508L127.718 144.611L127.693 144.746C125.157 158.366 117.783 170.872 107.971 179.972C98.1565 189.073 85.9372 194.738 73.7273 194.738C62.2651 194.738 50.6421 188.962 41.3109 179.787C31.9831 170.615 24.9874 158.087 22.7608 144.666L22.7375 144.526L22.644 144.419C20.9338 142.461 19.1019 139.305 18.3035 134.47L18.299 134.443L18.2917 134.417C17.5162 131.648 16.6549 127.857 16.4667 124.13C16.2776 120.384 16.7741 116.802 18.6109 114.36L18.6113 114.359C18.8618 114.025 19.1351 113.72 19.4229 113.432L19.6097 113.246L19.5607 112.986C18.205 105.806 17.4634 101.757 17.1819 99.1189C16.9037 96.5121 17.0799 95.3306 17.5504 93.8768L17.5737 93.805L17.5747 93.7295C17.5803 93.3073 17.5803 92.7438 17.5789 92.288C17.5782 92.0597 17.5771 91.8575 17.5763 91.7125L17.5752 91.5415L17.5748 91.4953L17.5748 91.486L17.6526 87.4812L17.6625 86.9715H17.1527H1.19406V75.9813H150.193L150.173 86.9715Z" stroke="#004595" stroke-opacity="0.3"/>
</g>
<defs>
<clipPath id="clip0_2_34">
<rect width="151" height="196" fill="white"/>
</clipPath>
</defs>
</svg>
