<svg width="150" height="150" viewBox="0 0 150 150" fill="none" xmlns="http://www.w3.org/2000/svg">
<path d="M29.8263 128.221V114.569H48.2718L32.8763 61.9919C29.7779 60.5395 27.3572 58.5787 25.6143 56.1096C23.8714 53.6406 23 50.3727 23 46.3059C23 41.7551 24.6703 37.8094 28.0108 34.4689C31.3513 31.1284 35.297 29.4581 39.8478 29.4581C44.1082 29.4581 47.6424 30.5958 50.4504 32.8712C53.2583 35.1467 55.1465 38.1725 56.1147 41.9487H77.3198V33.3796C77.3198 32.2177 77.7555 31.201 78.6269 30.3295C79.4984 29.4581 80.5151 29.0224 81.677 29.0224C82.7421 29.0224 83.6377 29.4339 84.3639 30.2569C85.0901 31.0799 85.4532 32.024 85.4532 33.0891L96.3462 22.6318C97.1208 21.8572 98.1133 21.3489 99.3236 21.1068C100.534 20.8647 101.769 21.0342 103.027 21.6151L125.975 32.6534C126.847 33.1375 127.452 33.8153 127.791 34.6867C128.13 35.5582 128.057 36.478 127.573 37.4463C127.089 38.4146 126.387 38.9955 125.467 39.1892C124.547 39.3828 123.651 39.2376 122.78 38.7535L100.268 27.8605L86.0342 42.2392V49.7917L100.268 64.7514L122.78 53.7132C123.748 53.229 124.668 53.108 125.539 53.3501C126.411 53.5921 127.089 54.1973 127.573 55.1656C128.057 56.1338 128.13 57.1021 127.791 58.0704C127.452 59.0386 126.798 59.7648 125.83 60.249L103.608 70.7063C102.253 71.384 100.945 71.6987 99.6867 71.6503C98.428 71.6019 97.3145 71.0936 96.3462 70.1253L85.4532 59.668C85.4532 61.0236 85.0901 62.0403 84.3639 62.7181C83.6377 63.3958 82.7421 63.7347 81.677 63.7347C80.5151 63.7347 79.4984 63.299 78.6269 62.4276C77.7555 61.5561 77.3198 60.5395 77.3198 59.3775V50.6631H55.8242C55.8242 51.8251 55.5096 53.0112 54.8802 54.2215C54.2508 55.4319 53.5004 56.4243 52.629 57.1989L82.4032 114.569H105.351V128.221H29.8263ZM39.8478 54.4394C42.1717 54.4394 44.1082 53.6648 45.6574 52.1155C47.2067 50.5663 47.9813 48.6298 47.9813 46.3059C47.9813 43.9821 47.2067 42.0456 45.6574 40.4963C44.1082 38.9471 42.1717 38.1725 39.8478 38.1725C37.524 38.1725 35.5875 38.9471 34.0382 40.4963C32.489 42.0456 31.7144 43.9821 31.7144 46.3059C31.7144 48.6298 32.489 50.5663 34.0382 52.1155C35.5875 53.6648 37.524 54.4394 39.8478 54.4394ZM57.8576 114.569H72.6721L45.2217 61.2657C44.9312 61.4593 44.4471 61.653 43.7693 61.8466C43.0915 62.0403 42.559 62.1855 42.1717 62.2823L57.8576 114.569Z" fill="#EA5B0A"/>
</svg>
